<?xml version="1.0" standalone="no"?>
<!DOCTYPE svg PUBLIC "-//W3C//DTD SVG 20010904//EN"
 "http://www.w3.org/TR/2001/REC-SVG-20010904/DTD/svg10.dtd">
<svg version="1.0" xmlns="http://www.w3.org/2000/svg"
 width="564.000000pt" height="440.000000pt" viewBox="0 0 564.000000 440.000000"
 preserveAspectRatio="xMidYMid meet">

<g transform="translate(0.000000,440.000000) scale(0.100000,-0.100000)"
fill="white" stroke="none">
<path d="M2003 4218 c-69 -18 -97 -109 -50 -163 16 -20 35 -28 69 -32 42 -5
50 -3 78 25 74 74 4 197 -97 170z"/>
<path d="M1145 4080 c-420 -65 -695 -179 -759 -315 -121 -254 405 -595 1499
-972 71 -24 131 -45 132 -46 1 -1 -2 -90 -6 -197 -10 -223 -26 -304 -73 -351
-35 -35 -76 -46 -191 -55 -119 -9 -109 -27 19 -35 215 -13 237 -60 250 -532 4
-130 10 -237 14 -237 4 0 11 98 14 218 15 495 33 536 249 550 66 5 102 11 105
20 2 8 -10 12 -40 12 -73 1 -179 19 -210 38 -45 26 -76 102 -88 212 -14 134
-17 340 -5 340 6 0 53 -14 105 -31 279 -89 489 -154 695 -214 127 -37 234 -71
239 -76 11 -10 -8 -178 -30 -264 -33 -128 -94 -214 -181 -256 -61 -30 -170
-48 -338 -56 -91 -5 -149 -12 -148 -18 2 -6 64 -13 145 -17 295 -14 390 -50
467 -174 78 -127 99 -306 111 -919 5 -259 9 -471 9 -472 1 -2 6 -3 11 -3 6 0
10 72 10 198 0 108 5 323 10 477 29 776 89 871 568 892 108 4 152 10 152 18 0
9 -46 14 -162 19 -180 9 -286 30 -352 72 -93 59 -151 184 -176 377 -7 54 -10
100 -8 103 3 2 25 -2 49 -10 45 -15 176 -50 669 -180 304 -80 1045 -264 1170
-290 41 -9 91 -20 110 -26 44 -13 97 -13 85 -1 -6 6 -107 34 -225 65 -322 82
-562 144 -685 176 -60 16 -173 45 -250 65 -255 66 -876 240 -911 254 -19 8
-21 20 -28 148 -3 76 -9 289 -12 473 -3 184 -10 339 -15 345 -5 5 -9 7 -10 5
0 -3 -4 -215 -8 -473 -4 -257 -10 -469 -13 -472 -2 -3 -33 4 -69 15 -35 11
-170 52 -299 91 -129 38 -340 104 -468 146 l-233 75 1 37 c3 64 0 91 -10 91
-6 0 -10 -27 -10 -61 0 -54 -2 -60 -17 -54 -10 4 -92 33 -183 65 -793 278
-1289 540 -1384 732 -60 120 -13 206 159 291 151 75 399 139 680 174 61 8 74
27 20 30 -16 0 -84 -7 -150 -17z"/>
<path d="M4815 1750 c-54 -28 -78 -63 -83 -125 -5 -62 13 -102 61 -139 49 -37
102 -42 157 -14 117 60 122 200 11 275 -42 29 -93 29 -146 3z m126 -50 c10 -6
26 -25 35 -42 47 -91 -68 -191 -148 -128 -39 30 -52 71 -38 114 6 20 21 43 33
51 25 17 89 20 118 5z"/>
</g>
</svg>
